<?xml version="1.0" encoding="UTF-8" standalone="no"?>
<svg width="169px" height="33px" viewBox="0 0 169 33" version="1.1" xmlns="http://www.w3.org/2000/svg" xmlns:xlink="http://www.w3.org/1999/xlink">
    <!-- Generator: Sketch 45.1 (43504) - http://www.bohemiancoding.com/sketch -->
    <title>Page 1</title>
    <desc>Created with Sketch.</desc>
    <defs>
        <polygon id="path-1" points="0.7324 8 5.6714 8 5.6714 0.6194 0.7324 0.6194 0.7324 8"></polygon>
        <polygon id="path-3" points="0 32.1439 168.42 32.1439 168.42 -0.0001 0 -0.0001"></polygon>
    </defs>
    <g id="Page-1" stroke="none" stroke-width="1" fill="none" fill-rule="evenodd">
        <g id="FAQS_Page-01" transform="translate(-228.000000, -2616.000000)">
            <g id="Footer" transform="translate(0.000000, 2528.000000)">
                <g id="Page-1" transform="translate(228.000000, 88.000000)">
                    <path d="M45.0913,11.202 L49.9253,11.202 L47.4923,3.187 L45.0913,11.202 Z M51.2983,1.79 L56.6263,17.571 L51.8663,17.571 L50.7063,13.788 L44.3223,13.788 L43.1673,17.571 L40.4323,17.571 L45.8053,0.008 L49.1623,0.008 C50.5383,0.008 50.8113,0.347 51.2983,1.79 Z" id="Fill-1" fill="#FEFEFE"></path>
                    <path d="M20.2485,15.2303 L18.9995,15.2303 L18.9995,2.2923 L21.2565,2.2923 C22.3445,2.2923 23.2795,3.1903 23.2795,4.2733 C23.2795,4.6543 23.2085,5.0093 22.8375,5.5453 L21.3755,7.7393 C22.9055,8.1053 23.9285,9.2723 23.9285,11.4513 C23.9285,14.1013 22.3445,15.2303 20.2485,15.2303 M24.6815,6.8903 L25.5435,5.6193 C27.3545,2.9273 26.1075,0.0043 22.5205,0.0043 L14.8645,0.0043 L14.8645,17.5773 L22.2485,17.5773 C28.7415,17.5773 30.6865,10.0133 24.6815,6.8903" id="Fill-3" fill="#FEFEFE"></path>
                    <path d="M5.3804,15.2303 L4.1424,15.2303 L4.1424,2.2923 L6.3884,2.2923 C7.4774,2.2923 8.4224,3.1903 8.4224,4.2733 C8.4224,4.6543 8.3514,5.0093 7.9744,5.5453 L6.5004,7.7393 C8.0384,8.1053 9.0594,9.2723 9.0594,11.4513 C9.0594,14.1013 7.4774,15.2303 5.3804,15.2303 M9.8134,6.8903 L10.6674,5.6193 C12.4874,2.9273 11.2414,0.0043 7.6454,0.0043 L0.0004,0.0043 L0.0004,0.0053 L0.0004,17.5773 L7.3824,17.5773 C13.8704,17.5773 15.8334,10.0133 9.8134,6.8903" id="Fill-5" fill="#FEFEFE"></path>
                    <path d="M39.7075,0.0047 L35.7425,13.3467 L32.4075,2.2927 C31.7815,0.3137 31.4665,0.0047 30.2655,0.0047 L27.1645,0.0047 L32.9105,17.5707 L37.1335,17.5707 L42.4865,0.0047 L39.7075,0.0047 Z" id="Fill-7" fill="#FEFEFE"></path>
                    <path d="M71.8315,14.0711 C71.6875,14.3821 71.4865,14.6481 71.2525,14.8731 C70.8875,15.2161 70.4115,15.4671 69.8555,15.6331 C69.2925,15.8071 68.6505,15.8831 67.9375,15.8831 L64.3745,15.8831 L64.3745,9.2181 L67.6505,9.2181 C68.3755,9.2181 69.0205,9.2781 69.5835,9.4171 C70.0045,9.5091 70.3665,9.6531 70.6815,9.8181 C71.1625,10.0771 71.5175,10.4241 71.7625,10.8671 C72.0075,11.3091 72.1395,11.8571 72.1395,12.5541 C72.1395,13.1541 72.0285,13.6601 71.8315,14.0711 L71.8315,14.0711 Z M64.3745,1.6761 L67.5565,1.6761 C68.1025,1.6761 68.6145,1.7241 69.0705,1.8191 C69.4175,1.8941 69.7365,2.0031 70.0095,2.1531 C70.4265,2.3621 70.7475,2.6421 70.9835,3.0241 C71.2095,3.4161 71.3425,3.9161 71.3425,4.5661 C71.3425,5.1511 71.2375,5.6061 71.0515,5.9801 C70.9145,6.2681 70.7205,6.4971 70.5005,6.6891 C70.1665,6.9801 69.7335,7.1971 69.2185,7.3391 C68.7075,7.4701 68.1375,7.5341 67.5075,7.5341 L64.3745,7.5341 L64.3745,1.6761 Z M73.1375,9.6431 C72.7585,9.1941 72.2775,8.8431 71.7465,8.6011 C71.4755,8.4651 71.1975,8.3591 70.9065,8.2641 C71.0375,8.2071 71.1625,8.1441 71.2835,8.0741 C71.8495,7.7531 72.3625,7.3291 72.7095,6.7481 C73.0645,6.1571 73.2655,5.4291 73.2655,4.5251 C73.2655,3.6921 73.1095,2.9671 72.8155,2.3801 C72.5975,1.9251 72.3015,1.5451 71.9385,1.2461 C71.4035,0.7841 70.7435,0.4661 70.0075,0.2801 C69.2695,0.0741 68.4465,0.0001 67.5805,0.0001 L62.4845,0.0001 L62.4845,0.3061 L62.4845,17.5711 L67.9705,17.5711 C68.8455,17.5711 69.6635,17.4791 70.3895,17.2911 C70.9535,17.1521 71.4615,16.9551 71.9035,16.6921 C72.5905,16.3021 73.1335,15.7601 73.5095,15.0781 C73.8875,14.3871 74.0925,13.5721 74.0925,12.6081 C74.0925,11.8611 73.9765,11.2351 73.7685,10.7011 C73.6025,10.2831 73.3915,9.9391 73.1375,9.6431 L73.1375,9.6431 Z" id="Fill-9" fill="#FEFEFE"></path>
                    <path d="M84.2202,14.2869 C83.7572,14.8199 83.2682,15.2759 82.6962,15.5909 C82.0922,15.9259 81.3652,16.1259 80.3902,16.1259 C79.9952,16.1259 79.6252,16.0799 79.2902,15.9839 C79.0472,15.9159 78.8312,15.8149 78.6352,15.6869 C78.3522,15.5039 78.1252,15.2539 77.9582,14.9209 C77.7902,14.5819 77.6972,14.1629 77.6972,13.6369 C77.6972,13.1869 77.7862,12.8369 77.9582,12.5429 C78.0902,12.3199 78.2482,12.1309 78.4542,11.9499 C78.7582,11.7009 79.1622,11.5229 79.6512,11.3939 C80.1242,11.2699 80.6742,11.2089 81.2912,11.2089 C82.3722,11.2089 83.3312,11.3499 84.2202,11.5439 L84.2202,14.2869 Z M85.0372,5.3319 C84.6342,4.9339 84.1092,4.6439 83.4932,4.4709 C82.8972,4.3019 82.2142,4.2259 81.4752,4.2259 C78.9562,4.2399 77.5402,4.9699 76.6202,5.4949 C77.3002,6.9329 78.0202,6.5819 78.9532,6.1809 C79.6672,5.8739 80.4902,5.7449 81.3592,5.7449 C81.7572,5.7459 82.1962,5.8399 82.6212,5.9269 C82.8742,5.9939 83.1002,6.0879 83.2872,6.1969 C83.5902,6.3869 83.8062,6.6199 83.9712,6.9239 C84.1312,7.2309 84.2202,7.6359 84.2202,8.1529 L84.2202,10.0329 C83.2682,9.8219 82.3092,9.7269 81.2172,9.7269 C80.4522,9.7269 79.7502,9.8009 79.1002,9.9539 C78.6252,10.0719 78.1952,10.2319 77.7832,10.4429 C77.1952,10.7659 76.7112,11.2029 76.3692,11.7499 C76.0322,12.3089 75.8592,12.9679 75.8592,13.7339 C75.8592,14.3569 75.9702,14.9389 76.1762,15.4329 C76.5032,16.1689 77.0632,16.7529 77.7582,17.1269 C78.4652,17.5079 79.2912,17.6979 80.2252,17.6979 L80.2282,17.6979 C81.3042,17.6979 82.1572,17.4979 82.8882,17.1579 C83.3862,16.9129 83.8222,16.6159 84.2202,16.2619 C84.2302,16.4339 84.2402,16.5749 84.2632,16.7059 C84.2822,16.8499 84.3172,16.9779 84.3832,17.0949 C84.4252,17.1819 84.4832,17.2669 84.5582,17.3349 C84.6732,17.4289 84.8062,17.4909 84.9422,17.5229 C85.0792,17.5599 85.2362,17.5709 85.4022,17.5709 L86.0392,17.5709 L86.0392,8.0769 C86.0392,7.3909 85.9272,6.8079 85.7112,6.3009 C85.5482,5.9209 85.3242,5.5979 85.0372,5.3319 L85.0372,5.3319 Z" id="Fill-11" fill="#FEFEFE"></path>
                    <path d="M98.8335,5.2225 C98.4925,4.8295 98.0625,4.5815 97.5995,4.4315 C97.1315,4.2845 96.6285,4.2255 96.1055,4.2255 C94.9345,4.2255 93.8695,4.4865 92.9105,4.8925 C92.1505,5.2195 91.4785,5.6185 90.8735,6.0685 L90.8735,5.9255 C90.8735,5.6395 90.8675,5.4185 90.8465,5.2255 C90.8285,5.0895 90.7945,4.9605 90.7545,4.8365 C90.7245,4.7555 90.6735,4.6695 90.6075,4.6015 C90.5655,4.5515 90.5135,4.5095 90.4535,4.4745 C90.3595,4.4235 90.2705,4.3945 90.1825,4.3855 C90.0955,4.3735 90.0085,4.3725 89.9165,4.3645 L89.0515,4.3645 L89.0515,17.5715 L90.8735,17.5715 L90.8735,7.8265 C91.5415,7.3165 92.2925,6.8375 93.0635,6.4735 C93.8965,6.0885 94.7585,5.8485 95.6355,5.8485 C95.9715,5.8485 96.2825,5.8745 96.5605,5.9375 C96.7545,5.9915 96.9365,6.0685 97.0885,6.1575 C97.3135,6.3085 97.4925,6.5045 97.6275,6.7995 C97.7655,7.0955 97.8425,7.4885 97.8425,8.0285 L97.8425,17.5715 L99.6755,17.5715 L99.6755,7.8955 C99.6755,7.2035 99.5775,6.6265 99.3905,6.1345 C99.2405,5.7855 99.0625,5.4745 98.8335,5.2225" id="Fill-13" fill="#FEFEFE"></path>
                    <path d="M123.7446,13.1795 C123.4366,14.1425 122.9326,14.8595 122.2676,15.3525 C121.5936,15.8435 120.7426,16.1065 119.7266,16.1065 C119.0396,16.1065 118.4326,15.9875 117.9066,15.7635 C117.1196,15.4335 116.5046,14.8595 116.0616,14.0585 C115.6336,13.2535 115.3936,12.2205 115.3936,10.9535 C115.3936,10.1205 115.4966,9.3815 115.7006,8.7395 C116.0026,7.7845 116.5106,7.0505 117.1796,6.5545 C117.8486,6.0455 118.6996,5.7855 119.7266,5.7855 C120.3996,5.7855 121.0116,5.9005 121.5316,6.1255 C122.3246,6.4725 122.9386,7.0545 123.3646,7.8695 C123.8086,8.6705 124.0436,9.7115 124.0436,10.9535 C124.0436,11.7935 123.9396,12.5435 123.7446,13.1795 M123.2946,5.2725 C122.3186,4.5775 121.0986,4.2215 119.7266,4.2255 C118.8106,4.2255 117.9766,4.3795 117.2196,4.6775 C116.0916,5.1515 115.1686,5.9505 114.5376,7.0215 C113.9086,8.0975 113.5646,9.4325 113.5646,10.9535 C113.5646,11.9795 113.7176,12.9065 114.0086,13.7375 C114.4366,14.9725 115.1816,15.9645 116.1616,16.6455 C117.1486,17.3135 118.3606,17.6765 119.7266,17.6765 C120.6326,17.6765 121.4776,17.5125 122.2416,17.2085 C123.3646,16.7495 124.2896,15.9545 124.9146,14.8875 C125.5556,13.8235 125.8896,12.4855 125.8896,10.9535 C125.8896,9.9365 125.7396,8.9955 125.4576,8.1785 C125.0186,6.9345 124.2796,5.9405 123.2946,5.2725" id="Fill-15" fill="#FEFEFE"></path>
                    <path d="M145.3052,5.2254 C144.9792,4.8664 144.5692,4.6034 144.1282,4.4474 C143.6782,4.2924 143.1852,4.2254 142.6712,4.2254 C141.6092,4.2254 140.6142,4.4814 139.7312,4.8754 C138.9912,5.2144 138.3332,5.6284 137.7512,6.0854 C137.6592,5.8594 137.5472,5.6504 137.4182,5.4684 C137.0902,5.0304 136.6552,4.7004 136.1602,4.5024 C135.6752,4.3014 135.1422,4.2254 134.5982,4.2254 C133.4992,4.2254 132.4942,4.5024 131.6232,4.9104 C130.9752,5.2194 130.3862,5.5844 129.8752,5.9514 L129.8752,5.9254 C129.8752,5.6424 129.8722,5.4184 129.8462,5.2294 C129.8362,5.0894 129.8092,4.9604 129.7752,4.8364 C129.7412,4.7554 129.6962,4.6694 129.6242,4.6014 C129.5782,4.5514 129.5272,4.5024 129.4682,4.4744 C129.3702,4.4234 129.2862,4.3944 129.1912,4.3854 C129.0962,4.3734 129.0092,4.3724 128.9182,4.3644 L128.0592,4.3644 L128.0592,17.5714 L129.8752,17.5714 L129.8752,7.7264 C130.4912,7.2284 131.1262,6.7734 131.8062,6.4334 C132.5302,6.0744 133.2952,5.8484 134.1662,5.8484 C134.4842,5.8484 134.7692,5.8774 135.0172,5.9414 C135.2072,5.9944 135.3642,6.0714 135.5012,6.1604 C135.7062,6.3084 135.8662,6.5014 135.9842,6.7774 C136.1052,7.0694 136.1772,7.4444 136.1772,7.9454 L136.1772,17.5714 L138.0022,17.5714 L138.0022,7.7124 C138.6092,7.2284 139.2482,6.7774 139.9192,6.4364 C140.6402,6.0764 141.4022,5.8484 142.2362,5.8484 C142.5822,5.8484 142.8832,5.8774 143.1342,5.9414 C143.3232,5.9944 143.4852,6.0714 143.6252,6.1604 C143.8282,6.3084 143.9802,6.4964 144.0972,6.7774 C144.2102,7.0674 144.2752,7.4384 144.2752,7.9454 L144.2752,17.5714 L146.0872,17.5714 L146.0872,7.6054 C146.0872,7.0194 145.9962,6.5174 145.8292,6.0744 C145.6992,5.7464 145.5192,5.4604 145.3052,5.2254" id="Fill-17" fill="#FEFEFE"></path>
                    <path d="M110.1616,15.6092 C109.6216,15.8752 108.9076,16.0822 107.9716,16.0822 C107.2576,16.0822 106.6466,15.9682 106.1036,15.7442 C105.7006,15.5772 105.3496,15.3522 105.0346,15.0662 C104.5696,14.6402 104.2076,14.0882 103.9486,13.3912 C103.7016,12.7002 103.5616,11.8722 103.5616,10.9292 C103.5616,10.0952 103.6796,9.3662 103.8956,8.7302 C104.2076,7.7822 104.7326,7.0562 105.4246,6.5632 C106.1096,6.0682 106.9676,5.8072 107.9716,5.8052 C108.8236,5.8052 109.4746,5.9482 109.9706,6.1562 C110.9006,6.5572 111.5526,7.0292 112.2316,5.5912 C110.3756,4.0832 108.5136,4.2502 107.9906,4.2262 C107.0786,4.2262 106.2236,4.3802 105.4666,4.6722 C104.3196,5.1362 103.3726,5.9252 102.7226,6.9862 C102.0676,8.0522 101.7126,9.3882 101.7176,10.9292 C101.7176,11.9342 101.8546,12.8722 102.1286,13.7002 C102.5486,14.9452 103.2686,15.9372 104.2556,16.6292 C105.2436,17.3062 106.4726,17.6772 107.9076,17.6772 L107.9106,17.6772 C109.0396,17.6772 109.9706,17.4522 110.7046,17.1462 C110.7986,17.1062 110.8906,17.0682 110.9806,17.0262 C111.5726,16.7432 112.1286,16.3152 112.4596,16.0012 C111.6786,14.6132 111.0606,15.1442 110.1616,15.6092" id="Fill-19" fill="#FEFEFE"></path>
                    <path d="M150.0435,9.7733 C150.1265,9.1683 150.2655,8.6403 150.4575,8.1693 C150.8005,7.3513 151.2875,6.7533 151.8855,6.3573 C152.4955,5.9513 153.2075,5.7563 154.0405,5.7563 C154.5885,5.7563 155.0945,5.8313 155.5265,5.9823 C155.8485,6.1023 156.1425,6.2633 156.3985,6.4863 C156.7815,6.8103 157.0885,7.2403 157.3135,7.8393 C157.4995,8.3623 157.6345,8.9923 157.6795,9.7733 L150.0435,9.7733 Z M158.3415,6.1313 C157.8545,5.4843 157.2315,5.0023 156.4995,4.6723 C155.7695,4.3733 154.9295,4.2263 154.0405,4.2263 C153.1895,4.2263 152.3985,4.3853 151.6755,4.7003 C150.6125,5.1743 149.7155,5.9823 149.0975,7.0673 C148.4855,8.1413 148.1475,9.4753 148.1475,11.0063 C148.1475,11.9983 148.2775,12.9193 148.5465,13.7423 C148.9475,14.9673 149.6535,15.9563 150.6425,16.6353 C151.6175,17.3113 152.8785,17.6773 154.3465,17.6773 L154.3485,17.6773 C155.5265,17.6773 156.4815,17.4853 157.2635,17.2083 C158.5115,16.7393 159.1485,16.1643 159.4585,15.8273 C158.6065,14.5873 158.1235,15.0843 157.1395,15.5393 C156.5645,15.8263 155.4595,16.0663 154.4675,16.0663 C153.7065,16.0663 153.0495,15.9543 152.5015,15.7423 C152.0845,15.5863 151.7235,15.3713 151.4115,15.0973 C150.9535,14.6883 150.5885,14.1583 150.3545,13.4733 C150.1365,12.8693 150.0145,12.1483 149.9925,11.3083 L159.4955,11.3083 L159.4955,11.0093 L159.4955,10.9303 C159.4955,10.8203 159.5095,10.6123 159.5095,10.4143 C159.5095,9.3663 159.3815,8.4593 159.1175,7.6703 C158.9285,7.0873 158.6665,6.5773 158.3415,6.1313 L158.3415,6.1313 Z" id="Fill-21" fill="#FEFEFE"></path>
                    <path d="M167.2798,4.2791 C166.3138,4.2751 165.4648,4.5741 164.7368,5.0271 C164.2598,5.3191 163.8298,5.6741 163.4508,6.0501 C163.4508,5.7351 163.4428,5.4881 163.4138,5.2871 C163.4048,5.1291 163.3798,5.0011 163.3358,4.8741 C163.3048,4.7911 163.2648,4.7041 163.1968,4.6231 C163.1498,4.5741 163.0978,4.5271 163.0408,4.4901 C162.9528,4.4341 162.8598,4.4001 162.7588,4.3891 C162.6758,4.3791 162.5888,4.3781 162.4978,4.3691 L161.6288,4.3691 L161.6288,17.5751 L163.4508,17.5751 L163.4508,8.0971 C164.0898,7.3421 164.6808,6.8751 165.0868,6.6191 C165.1008,6.6101 165.1158,6.6021 165.1288,6.5931 C165.8668,6.1271 166.4568,5.9981 166.9258,5.9541 C167.7718,5.8721 168.3368,5.7601 168.4198,4.4431 C168.0818,4.3431 167.6918,4.2811 167.2798,4.2791" id="Fill-23" fill="#FEFEFE"></path>
                    <path d="M0.0005,26.4266 C0.0005,24.0346 1.3685,22.6676 3.1595,22.6676 C4.5375,22.6676 5.3935,23.2676 5.8955,24.3506 L4.8525,24.9706 C4.5665,24.2906 4.0355,23.7996 3.1595,23.7996 C1.9195,23.7996 1.2305,24.8226 1.2305,26.4166 C1.2305,28.0996 1.9595,29.1226 3.2285,29.1226 C4.1345,29.1226 4.7245,28.5816 5.0095,27.7646 L6.0725,28.2466 C5.6395,29.4476 4.7535,30.2256 3.2285,30.2256 C1.3495,30.2256 0.0005,28.8866 0.0005,26.4266" id="Fill-25" fill="#FEFEFE"></path>
                    <path d="M7.1938,30.0877 L7.1938,24.8717 L8.3058,24.8717 L8.4038,25.7187 L8.4138,25.7187 C8.7288,25.2267 9.2798,24.7637 10.2548,24.7637 L10.3028,24.7637 L10.4118,25.8757 C10.3328,25.8567 10.1748,25.8567 10.0968,25.8567 C9.2988,25.8567 8.7388,26.2197 8.4038,26.7807 L8.4038,30.0877 L7.1938,30.0877 Z" id="Fill-27" fill="#FEFEFE"></path>
                    <path d="M14.3677,26.9774 C14.3077,26.2094 13.9047,25.7484 13.1767,25.7484 C12.5767,25.7484 12.0347,26.1414 11.9167,26.9774 L14.3677,26.9774 Z M10.6967,27.4794 C10.6967,25.5214 12.1037,24.7634 13.1857,24.7634 C14.3177,24.7634 15.4787,25.4614 15.4787,27.5874 L15.4787,27.8734 L11.9067,27.8734 C11.9467,28.7884 12.5367,29.2314 13.3237,29.2314 C13.9727,29.2314 14.5347,28.9564 14.9377,28.5624 L15.4207,29.3594 C14.8297,29.9194 14.1507,30.1954 13.2557,30.1954 C11.9067,30.1954 10.6967,29.3984 10.6967,27.4794 L10.6967,27.4794 Z" id="Fill-29" fill="#FEFEFE"></path>
                    <path d="M19.5435,28.6307 L19.5435,27.4797 C17.8605,27.7157 17.3185,28.0797 17.3185,28.6017 C17.3185,29.0147 17.6055,29.2317 18.0575,29.2317 C18.6775,29.2317 19.1695,29.0047 19.5435,28.6307 M16.1385,28.7987 C16.1385,27.6477 17.1035,26.9387 19.5435,26.6627 L19.5435,26.5057 C19.5435,26.0237 19.2585,25.7577 18.6385,25.7577 C17.9585,25.7577 17.4375,26.0527 16.9555,26.4557 L16.2955,25.7187 C16.8475,25.2057 17.5955,24.7637 18.7955,24.7637 C20.1435,24.7637 20.7245,25.4327 20.7245,26.6527 L20.7245,30.0877 L19.6425,30.0877 L19.5435,29.4177 C19.0415,29.9297 18.4015,30.1657 17.6245,30.1657 C16.7685,30.1657 16.1385,29.6537 16.1385,28.7987" id="Fill-31" fill="#FEFEFE"></path>
                    <path d="M22.0327,30.0877 L22.0327,24.8717 L23.1437,24.8717 L23.2427,25.6097 C23.6267,25.1767 24.2567,24.7637 25.1227,24.7637 C26.0667,24.7637 26.6577,25.2557 26.6577,26.2887 L26.6577,30.0877 L25.4567,30.0877 L25.4567,26.6437 C25.4567,26.0627 25.2207,25.7677 24.6597,25.7677 C24.1377,25.7677 23.6957,26.0327 23.2427,26.4457 L23.2427,30.0877 L22.0327,30.0877 Z" id="Fill-33" fill="#FEFEFE"></path>
                    <path d="M31.4097,28.5223 L31.4097,26.3973 C30.9867,25.9843 30.6227,25.7673 30.1207,25.7673 C29.3837,25.7673 28.8907,26.3283 28.8907,27.4993 C28.8907,28.5723 29.3627,29.1713 30.1407,29.1713 C30.6427,29.1713 31.0467,28.8963 31.4097,28.5223 M27.6807,27.5083 C27.6807,25.6983 28.5657,24.7633 29.7667,24.7633 C30.4747,24.7633 31.0467,25.0093 31.4097,25.4613 L31.4097,22.8943 L32.6207,22.7163 L32.6207,30.0873 L31.5087,30.0873 L31.4097,29.3983 C31.0557,29.8413 30.5247,30.1663 29.7467,30.1663 C28.5557,30.1663 27.6807,29.3203 27.6807,27.5083" id="Fill-35" fill="#FEFEFE"></path>
                    <path d="M37.5698,27.4891 C37.5698,26.5251 37.1468,25.7971 36.2318,25.7971 C35.3558,25.7971 34.8928,26.4561 34.8928,27.4891 C34.8928,28.4831 35.2968,29.1821 36.2318,29.1821 C37.1068,29.1821 37.5698,28.4831 37.5698,27.4891 M33.6828,27.4791 C33.6828,25.5601 34.9528,24.7631 36.2318,24.7631 C37.5008,24.7631 38.7698,25.5601 38.7698,27.4791 C38.7698,29.3881 37.5008,30.1951 36.2318,30.1951 C34.9628,30.1951 33.6828,29.3881 33.6828,27.4791" id="Fill-37" fill="#FEFEFE"></path>
                    <path d="M47.4497,26.4461 C47.4497,24.7931 46.6227,23.8001 45.3927,23.8001 C44.1627,23.8001 43.3367,24.7931 43.3367,26.4461 C43.3367,28.0991 44.1627,29.1231 45.3927,29.1231 C46.6227,29.1231 47.4497,28.0991 47.4497,26.4461 M42.1057,26.4461 C42.1057,23.9961 43.6317,22.6681 45.3927,22.6681 C47.1437,22.6681 48.6697,23.9961 48.6697,26.4461 C48.6697,28.8961 47.1437,30.2251 45.3927,30.2251 C43.6317,30.2251 42.1057,28.8961 42.1057,26.4461" id="Fill-39" fill="#FEFEFE"></path>
                    <g id="Group-43" transform="translate(49.000000, 24.143900)">
                        <mask id="mask-2" fill="white">
                            <use xlink:href="#path-1"></use>
                        </mask>
                        <g id="Clip-42"></g>
                        <path d="M4.4614,3.3354 C4.4614,2.2534 3.9884,1.6524 3.2114,1.6524 C2.7094,1.6524 2.3064,1.9284 1.9414,2.3024 L1.9414,4.4384 C2.3654,4.8514 2.7294,5.0674 3.2314,5.0674 C3.9794,5.0674 4.4614,4.5464 4.4614,3.3354 L4.4614,3.3354 Z M0.7324,8.0004 L0.7324,0.7284 L1.8444,0.7284 L1.9414,1.4064 C2.2964,0.9744 2.8274,0.6194 3.6054,0.6194 C4.7964,0.6194 5.6714,1.5154 5.6714,3.3254 C5.6714,5.1364 4.7854,6.0224 3.5854,6.0224 C2.8774,6.0224 2.3354,5.8054 1.9414,5.3724 L1.9414,7.8224 L0.7324,8.0004 Z" id="Fill-41" fill="#FEFEFE" mask="url(#mask-2)"></path>
                    </g>
                    <path d="M59.3354,27.4891 C59.3354,26.5251 58.9124,25.7971 57.9974,25.7971 C57.1214,25.7971 56.6584,26.4561 56.6584,27.4891 C56.6584,28.4831 57.0634,29.1821 57.9974,29.1821 C58.8734,29.1821 59.3354,28.4831 59.3354,27.4891 M55.4484,27.4791 C55.4484,25.5601 56.7184,24.7631 57.9974,24.7631 C59.2674,24.7631 60.5364,25.5601 60.5364,27.4791 C60.5364,29.3881 59.2674,30.1951 57.9974,30.1951 C56.7284,30.1951 55.4484,29.3881 55.4484,27.4791" id="Fill-44" fill="#FEFEFE"></path>
                    <path d="M61.6089,30.0877 L61.6089,24.8717 L62.7199,24.8717 L62.8189,25.7187 L62.8289,25.7187 C63.1439,25.2267 63.6949,24.7637 64.6689,24.7637 L64.7179,24.7637 L64.8269,25.8757 C64.7479,25.8567 64.5899,25.8567 64.5109,25.8567 C63.7139,25.8567 63.1539,26.2197 62.8189,26.7807 L62.8189,30.0877 L61.6089,30.0877 Z" id="Fill-46" fill="#FEFEFE"></path>
                    <path d="M66.0464,28.6502 L66.0464,25.8262 L65.1604,25.8262 L65.1604,24.8722 L66.0464,24.8722 L66.0464,23.1292 L67.2464,22.9532 L67.2464,24.8722 L68.5954,24.8722 L68.5954,25.8262 L67.2464,25.8262 L67.2464,28.4632 C67.2464,29.0242 67.4834,29.2022 67.9754,29.2022 C68.1714,29.2022 68.3594,29.1622 68.5064,29.1232 L68.6054,30.0772 C68.4574,30.1072 67.9754,30.1562 67.6504,30.1562 C66.5484,30.1562 66.0464,29.7822 66.0464,28.6502" id="Fill-48" fill="#FEFEFE"></path>
                    <path d="M69.5493,28.6697 L69.5493,24.8717 L70.7593,24.8717 L70.7593,28.3457 C70.7593,28.8967 70.9863,29.1717 71.5463,29.1717 C72.0683,29.1717 72.5113,28.8967 72.9633,28.4827 L72.9633,24.8717 L74.1743,24.8717 L74.1743,30.0877 L73.0623,30.0877 L72.9633,29.3587 C72.5793,29.7727 71.9503,30.1947 71.0943,30.1947 C70.1393,30.1947 69.5493,29.7037 69.5493,28.6697" id="Fill-50" fill="#FEFEFE"></path>
                    <path d="M75.5317,30.0877 L75.5317,24.8717 L76.6437,24.8717 L76.7417,25.6097 C77.1257,25.1767 77.7557,24.7637 78.6217,24.7637 C79.5667,24.7637 80.1567,25.2557 80.1567,26.2887 L80.1567,30.0877 L78.9567,30.0877 L78.9567,26.6437 C78.9567,26.0627 78.7197,25.7677 78.1597,25.7677 C77.6367,25.7677 77.1947,26.0327 76.7417,26.4457 L76.7417,30.0877 L75.5317,30.0877 Z" id="Fill-52" fill="#FEFEFE"></path>
                    <mask id="mask-4" fill="white">
                        <use xlink:href="#path-3"></use>
                    </mask>
                    <g id="Clip-55"></g>
                    <path d="M81.524,30.0879 L82.725,30.0879 L82.725,24.8719 L81.524,24.8719 L81.524,30.0879 Z M81.426,23.4549 C81.426,23.0909 81.672,22.8149 82.115,22.8149 C82.568,22.8149 82.824,23.0909 82.824,23.4549 C82.824,23.8189 82.568,24.0949 82.115,24.0949 C81.672,24.0949 81.426,23.8189 81.426,23.4549 L81.426,23.4549 Z" id="Fill-54" fill="#FEFEFE" mask="url(#mask-4)"></path>
                    <path d="M87.5854,28.5223 L87.5854,26.3973 C87.1624,25.9843 86.7984,25.7673 86.2964,25.7673 C85.5594,25.7673 85.0664,26.3283 85.0664,27.4993 C85.0664,28.5723 85.5384,29.1713 86.3164,29.1713 C86.8174,29.1713 87.2224,28.8963 87.5854,28.5223 M83.8564,27.5083 C83.8564,25.6983 84.7414,24.7633 85.9424,24.7633 C86.6504,24.7633 87.2224,25.0093 87.5854,25.4613 L87.5854,22.8943 L88.7964,22.7163 L88.7964,30.0873 L87.6844,30.0873 L87.5854,29.3983 C87.2314,29.8413 86.7004,30.1663 85.9224,30.1663 C84.7314,30.1663 83.8564,29.3203 83.8564,27.5083" id="Fill-56" fill="#FEFEFE" mask="url(#mask-4)"></path>
                    <path d="M93.2241,28.6307 L93.2241,27.4797 C91.5411,27.7157 91.0001,28.0797 91.0001,28.6017 C91.0001,29.0147 91.2861,29.2317 91.7381,29.2317 C92.3581,29.2317 92.8501,29.0047 93.2241,28.6307 M89.8191,28.7987 C89.8191,27.6477 90.7841,26.9387 93.2241,26.6627 L93.2241,26.5057 C93.2241,26.0237 92.9391,25.7577 92.3191,25.7577 C91.6401,25.7577 91.1191,26.0527 90.6361,26.4557 L89.9771,25.7187 C90.5281,25.2057 91.2761,24.7637 92.4761,24.7637 C93.8251,24.7637 94.4051,25.4327 94.4051,26.6527 L94.4051,30.0877 L93.3231,30.0877 L93.2241,29.4177 C92.7221,29.9297 92.0821,30.1657 91.3051,30.1657 C90.4491,30.1657 89.8191,29.6537 89.8191,28.7987" id="Fill-57" fill="#FEFEFE" mask="url(#mask-4)"></path>
                    <path d="M99.1577,28.5223 L99.1577,26.3973 C98.7337,25.9843 98.3707,25.7673 97.8687,25.7673 C97.1307,25.7673 96.6377,26.3283 96.6377,27.4993 C96.6377,28.5723 97.1107,29.1713 97.8877,29.1713 C98.3897,29.1713 98.7937,28.8963 99.1577,28.5223 M95.4287,27.5083 C95.4287,25.6983 96.3137,24.7633 97.5137,24.7633 C98.2217,24.7633 98.7937,25.0093 99.1577,25.4613 L99.1577,22.8943 L100.3677,22.7163 L100.3677,30.0873 L99.2567,30.0873 L99.1577,29.3983 C98.8037,29.8413 98.2717,30.1663 97.4947,30.1663 C96.3037,30.1663 95.4287,29.3203 95.4287,27.5083" id="Fill-58" fill="#FEFEFE" mask="url(#mask-4)"></path>
                    <path d="M105.1011,26.9774 C105.0411,26.2094 104.6381,25.7484 103.9101,25.7484 C103.3101,25.7484 102.7681,26.1414 102.6501,26.9774 L105.1011,26.9774 Z M101.4301,27.4794 C101.4301,25.5214 102.8371,24.7634 103.9191,24.7634 C105.0511,24.7634 106.2121,25.4614 106.2121,27.5874 L106.2121,27.8734 L102.6401,27.8734 C102.6801,28.7884 103.2701,29.2314 104.0571,29.2314 C104.7071,29.2314 105.2681,28.9564 105.6711,28.5624 L106.1541,29.3594 C105.5631,29.9194 104.8841,30.1954 103.9891,30.1954 C102.6401,30.1954 101.4301,29.3984 101.4301,27.4794 L101.4301,27.4794 Z" id="Fill-59" fill="#FEFEFE" mask="url(#mask-4)"></path>
                    <path d="M106.8228,29.369 L107.2848,28.553 C107.7578,28.956 108.4068,29.261 109.0858,29.261 C109.7348,29.261 110.1288,29.054 110.1288,28.69 C110.1288,28.266 109.8238,28.119 108.9578,27.942 C107.8558,27.716 107.0098,27.421 107.0098,26.299 C107.0098,25.374 107.7768,24.764 108.9278,24.764 C109.8628,24.764 110.4928,25.029 111.0448,25.423 L110.6208,26.279 C110.1288,25.925 109.5778,25.719 109.0168,25.719 C108.4268,25.719 108.1408,25.934 108.1408,26.25 C108.1408,26.594 108.4268,26.752 109.2038,26.919 C110.3748,27.155 111.2698,27.431 111.2698,28.532 C111.2698,29.674 110.2768,30.185 109.0758,30.185 C108.0718,30.185 107.3248,29.811 106.8228,29.369" id="Fill-60" fill="#FEFEFE" mask="url(#mask-4)"></path>
                </g>
            </g>
        </g>
    </g>
</svg>