<?xml version="1.0" encoding="utf-8"?>
<!-- Generator: Adobe Illustrator 20.0.0, SVG Export Plug-In . SVG Version: 6.00 Build 0)  -->
<svg version="1.1" id="Capa_1" xmlns="http://www.w3.org/2000/svg" xmlns:xlink="http://www.w3.org/1999/xlink" x="0px" y="0px"
	 width="266.473px" height="28px" viewBox="0 0 266.473 28" style="enable-background:new 0 0 266.473 28;" xml:space="preserve">
<style type="text/css">
	.st0{fill:#FFFFFF;}
</style>
<g>
	<path class="st0" d="M98.865,27.799V0.484V0h8.062c1.371,0,2.674,0.118,3.84,0.443l0,0c1.163,0.294,2.211,0.798,3.056,1.528l0,0
		c0.573,0.474,1.043,1.073,1.387,1.793l0,0c0.465,0.93,0.711,2.075,0.711,3.396l0,0c0,1.432-0.318,2.582-0.879,3.516l0,0
		c-0.549,0.92-1.361,1.589-2.256,2.099l0,0c-0.192,0.112-0.389,0.211-0.595,0.301l0,0c0.459,0.15,0.898,0.317,1.328,0.531l0,0
		c0.841,0.386,1.599,0.94,2.2,1.65l0,0c0.403,0.471,0.735,1.012,0.996,1.672l0,0c0.329,0.848,0.514,1.837,0.514,3.018l0,0
		c0,1.525-0.323,2.815-0.924,3.909l0,0c-0.595,1.078-1.453,1.936-2.537,2.552l0,0c-0.702,0.416-1.503,0.729-2.397,0.948l0,0
		c-1.149,0.298-2.442,0.443-3.825,0.443l0,0H98.865L98.865,27.799z M107.493,25.129c1.129,0,2.143-0.121,3.035-0.395l0,0
		c0.88-0.262,1.63-0.661,2.208-1.202l0,0c0.373-0.357,0.69-0.779,0.916-1.269l0,0c0.314-0.65,0.488-1.45,0.488-2.399l0,0
		c0-1.103-0.21-1.97-0.598-2.67l0,0c-0.387-0.701-0.949-1.251-1.71-1.66l0,0c-0.496-0.26-1.07-0.488-1.738-0.635l0,0
		c-0.888-0.22-1.908-0.315-3.056-0.315l0,0h-5.183v10.546H107.493z M106.812,11.92c0.995,0,1.898-0.102,2.705-0.311l0,0
		c0.818-0.223,1.503-0.565,2.03-1.026l0,0c0.348-0.305,0.655-0.667,0.872-1.123l0,0c0.295-0.591,0.462-1.311,0.462-2.235l0,0
		c0-1.03-0.21-1.821-0.569-2.442l0,0c-0.372-0.604-0.881-1.046-1.538-1.376l0,0c-0.435-0.238-0.939-0.41-1.485-0.529l0,0
		c-0.725-0.149-1.535-0.226-2.399-0.226l0,0h-5.033v9.268H106.812z"/>
	<g>
		<path class="st0" d="M135.611,9.967c-0.255-0.599-0.612-1.109-1.064-1.532c-0.639-0.628-1.47-1.086-2.444-1.362
			c-0.942-0.269-2.026-0.386-3.193-0.386c-3.985,0.022-6.225,1.175-7.681,2.005c1.076,2.276,2.216,1.72,3.689,1.086
			c1.13-0.486,2.434-0.688,3.808-0.688c0.63,0.001,1.325,0.148,1.999,0.286c0.397,0.107,0.755,0.255,1.051,0.428
			c0.481,0.301,0.823,0.669,1.083,1.15c0.255,0.486,0.393,1.124,0.393,1.945v2.974c-1.505-0.333-3.023-0.485-4.75-0.485
			c-1.211,0-2.319,0.116-3.349,0.36c-0.752,0.187-1.432,0.44-2.085,0.773c-0.93,0.511-1.693,1.202-2.234,2.067
			c-0.535,0.886-0.808,1.926-0.808,3.141c0,0.985,0.175,1.906,0.501,2.686c0.518,1.166,1.405,2.089,2.503,2.68
			c1.119,0.605,2.425,0.906,3.904,0.906c0,0,0,0,0.005,0c1.701,0,3.051-0.316,4.207-0.856c0.789-0.386,1.477-0.856,2.106-1.417
			c0.015,0.273,0.035,0.496,0.068,0.704c0.031,0.226,0.088,0.43,0.19,0.615c0.068,0.137,0.158,0.274,0.278,0.379
			c0.183,0.147,0.392,0.248,0.606,0.298c0.217,0.059,0.467,0.075,0.729,0.075h1.009V12.777
			C136.132,11.695,135.953,10.769,135.611,9.967z M133.252,22.602c-0.731,0.846-1.505,1.567-2.41,2.062
			c-0.955,0.532-2.107,0.847-3.648,0.847c-0.624,0-1.206-0.071-1.74-0.223c-0.385-0.106-0.725-0.268-1.036-0.469
			c-0.447-0.29-0.805-0.684-1.07-1.211c-0.265-0.537-0.414-1.201-0.414-2.032c0-0.713,0.144-1.269,0.414-1.731
			c0.208-0.354,0.459-0.653,0.787-0.939c0.479-0.394,1.117-0.675,1.892-0.88c0.747-0.197,1.618-0.292,2.595-0.292
			c1.712,0,3.228,0.224,4.632,0.531V22.602z"/>
	</g>
	<path class="st0" d="M154.803,27.799V12.7c0-0.852-0.12-1.475-0.338-1.944l0,0c-0.214-0.464-0.496-0.774-0.852-1.017l0,0
		c-0.245-0.14-0.529-0.263-0.837-0.345l0,0c-0.439-0.102-0.932-0.142-1.464-0.142l0,0c-1.387,0-2.751,0.379-4.067,0.988l0,0
		c-1.222,0.577-2.409,1.334-3.465,2.14l0,0v15.418h-2.884V6.905h1.369c0.147,0.012,0.281,0.015,0.42,0.032l0,0
		c0.139,0.017,0.282,0.061,0.428,0.144l0,0c0.095,0.055,0.18,0.119,0.246,0.2l0,0c0.102,0.108,0.184,0.242,0.232,0.373l0,0
		c0.063,0.193,0.118,0.398,0.144,0.613l0,0c0.033,0.306,0.044,0.655,0.044,1.108l0,0v0.224c0.956-0.709,2.021-1.34,3.223-1.857l0,0
		c1.516-0.646,3.2-1.055,5.055-1.055l0,0c0.826,0,1.621,0.09,2.362,0.324l0,0c0.734,0.239,1.413,0.631,1.953,1.252l0,0
		c0.36,0.398,0.644,0.89,0.881,1.443l0,0c0.295,0.779,0.452,1.692,0.452,2.787l0,0v15.306H154.803L154.803,27.799z"/>
	<path class="st0" d="M183.785,26.335c-1.548-1.077-2.727-2.647-3.405-4.602l0,0c-0.46-1.315-0.701-2.781-0.701-4.404l0,0
		c0-2.405,0.543-4.518,1.54-6.219l0,0c0.999-1.694,2.458-2.96,4.241-3.709l0,0c1.201-0.472,2.518-0.714,3.968-0.714l0,0
		c2.17-0.008,4.101,0.557,5.645,1.655l0,0c1.558,1.059,2.728,2.631,3.422,4.598l0,0c0.449,1.295,0.682,2.782,0.682,4.39l0,0
		c0,2.425-0.529,4.541-1.544,6.226l0,0c-0.985,1.686-2.449,2.946-4.226,3.672l0,0c-1.208,0.479-2.544,0.741-3.979,0.741l0,0l0,0l0,0
		C187.269,27.967,185.347,27.391,183.785,26.335L183.785,26.335z M185.397,10.369c-1.057,0.787-1.861,1.946-2.339,3.455l0,0
		c-0.322,1.019-0.483,2.187-0.483,3.505l0,0c0,2.007,0.378,3.64,1.057,4.913l0,0c0.697,1.267,1.672,2.175,2.915,2.697l0,0
		c0.833,0.354,1.793,0.544,2.881,0.544l0,0c1.609,0,2.954-0.416,4.022-1.194l0,0c1.052-0.779,1.848-1.913,2.335-3.436l0,0
		c0.308-1.007,0.476-2.193,0.476-3.524l0,0l0,0c0-1.964-0.375-3.611-1.075-4.879l0,0c-0.676-1.289-1.647-2.209-2.902-2.758l0,0
		c-0.822-0.357-1.788-0.54-2.855-0.54l0,0C187.804,9.152,186.455,9.565,185.397,10.369L185.397,10.369z"/>
	<path class="st0" d="M228.266,27.799v-15.23c0-0.799-0.104-1.388-0.281-1.845l0,0c-0.187-0.446-0.424-0.744-0.746-0.978l0,0
		c-0.224-0.14-0.481-0.261-0.779-0.345l0,0c-0.396-0.1-0.875-0.148-1.42-0.148l0,0c-1.32,0-2.526,0.36-3.666,0.93l0,0
		c-1.063,0.541-2.074,1.253-3.032,2.019l0,0v15.597h-2.89v-15.23c0-0.791-0.112-1.384-0.304-1.845l0,0
		c-0.187-0.438-0.439-0.741-0.765-0.978l0,0c-0.219-0.14-0.465-0.261-0.764-0.345l0,0c-0.393-0.1-0.844-0.148-1.346-0.148l0,0
		c-1.379,0-2.589,0.356-3.735,0.926l0,0c-1.075,0.539-2.08,1.257-3.054,2.046l0,0v15.574h-2.874V6.905h1.36
		c0.143,0.012,0.28,0.015,0.43,0.032l0,0c0.151,0.017,0.285,0.061,0.439,0.144l0,0c0.092,0.042,0.176,0.119,0.246,0.2l0,0
		c0.114,0.108,0.185,0.242,0.237,0.373l0,0c0.056,0.193,0.099,0.398,0.116,0.619l0,0c0.041,0.301,0.046,0.655,0.046,1.103l0,0v0.04
		c0.807-0.58,1.738-1.156,2.763-1.647l0,0c1.38-0.646,2.97-1.082,4.707-1.082l0,0c0.861,0,1.706,0.121,2.471,0.436l0,0
		c0.784,0.314,1.473,0.835,1.99,1.527l0,0c0.206,0.289,0.384,0.62,0.526,0.978l0,0c0.924-0.722,1.964-1.377,3.132-1.914l0,0
		c1.399-0.624,2.973-1.027,4.655-1.027l0,0c0.81,0,1.592,0.105,2.306,0.349l0,0c0.697,0.249,1.345,0.66,1.859,1.231l0,0
		c0.34,0.372,0.624,0.824,0.832,1.342l0,0c0.264,0.704,0.407,1.497,0.407,2.425l0,0v15.765H228.266L228.266,27.799z"/>
	<g>
		<path class="st0" d="M71.346,17.724l3.8-12.68l3.848,12.68H71.346z M81.167,2.832c-0.77-2.283-1.202-2.819-3.378-2.819h-5.311
			l-8.502,27.786h4.33l1.826-5.984h10.1l1.836,5.984h7.531L81.167,2.832z"/>
		<path class="st0" d="M30.068,24.094V3.628h3.571c1.721,0,3.203,1.419,3.203,3.133c0,0.603-0.113,1.166-0.701,2.012l-2.313,3.471
			c2.421,0.581,4.039,2.426,4.039,5.873c0,4.192-2.507,5.977-5.822,5.977H30.068z M39.057,10.901L40.42,8.89
			c2.867-4.26,0.894-8.883-4.78-8.883H23.527v27.8h11.682C45.482,27.807,48.558,15.842,39.057,10.901"/>
		<path class="st0" d="M8.522,24.094h-1.96V3.628h3.553c1.723,0,3.217,1.419,3.217,3.133c0,0.603-0.11,1.166-0.709,2.012
			l-2.328,3.471c2.43,0.581,4.046,2.426,4.046,5.873C14.342,22.309,11.838,24.094,8.522,24.094 M15.534,10.901l1.354-2.011
			c2.88-4.26,0.908-8.883-4.782-8.883H0.008v27.8h11.683C21.953,27.807,25.058,15.842,15.534,10.901"/>
		<path class="st0" d="M51.281,3.628c-0.989-3.131-1.491-3.621-3.39-3.621h-4.904l9.092,27.791h6.678l8.47-27.791h-4.398
			l-6.272,21.109L51.281,3.628z"/>
		<path class="st0" d="M0.008,0.007h11.683"/>
	</g>
	<path class="st0" d="M177.571,8.845c-1.077,2.276-2.108,1.529-3.579,0.895l0,0c-0.784-0.331-1.813-0.557-3.163-0.557l0,0
		c-1.59,0.004-2.944,0.417-4.03,1.201l0,0c-1.093,0.78-1.925,1.927-2.418,3.427l0,0c-0.342,1.007-0.529,2.161-0.529,3.48l0,0
		c0,1.493,0.221,2.804,0.613,3.895l0,0c0.409,1.102,0.983,1.976,1.717,2.65l0,0c0.501,0.453,1.056,0.808,1.691,1.074l0,0
		c0.861,0.354,1.826,0.534,2.956,0.534l0,0c1.478,0,2.609-0.328,3.464-0.746c1.425-0.737,2.4-1.579,3.636,0.616
		c-0.523,0.498-1.402,1.176-2.341,1.624c-0.14,0.066-0.285,0.128-0.435,0.19c-1.162,0.485-2.634,0.84-4.42,0.84l0,0
		c-0.007,0-0.007,0-0.007,0l0,0c-2.269,0-4.212-0.586-5.776-1.658l0,0c-1.561-1.095-2.701-2.664-3.365-4.636l0,0
		c-0.433-1.308-0.653-2.79-0.653-4.382l0,0c-0.005-2.437,0.557-4.551,1.59-6.238l0,0c1.029-1.677,2.529-2.925,4.34-3.661l0,0
		c1.201-0.464,2.554-0.705,3.996-0.705l0,0C171.686,6.725,174.633,6.46,177.571,8.845z"/>
	<g>
		<path class="st0" d="M251.749,12.136c-0.303-0.924-0.715-1.731-1.232-2.436c-0.768-1.024-1.754-1.786-2.91-2.308
			c-1.158-0.474-2.486-0.705-3.892-0.705c-1.346,0-2.597,0.25-3.741,0.749c-1.682,0.752-3.1,2.031-4.079,3.745
			c-0.968,1.701-1.504,3.811-1.504,6.233c0,1.568,0.206,3.027,0.633,4.328c0.636,1.939,1.754,3.503,3.316,4.579
			c1.543,1.068,3.536,1.646,5.861,1.646c0,0,0,0,0.004,0c1.864,0,3.376-0.302,4.609-0.741c1.975-0.744,2.986-1.653,3.475-2.186
			c-1.347-1.959-2.113-1.175-3.669-0.454c-0.91,0.452-2.658,0.832-4.23,0.832c-1.202,0-2.244-0.177-3.109-0.512
			c-0.658-0.246-1.231-0.586-1.723-1.02c-0.724-0.648-1.303-1.487-1.673-2.569c-0.345-0.958-0.536-2.097-0.571-3.425h15.032v-0.473
			c0-0.006,0-0.059,0-0.126c0.001-0.175,0.023-0.502,0.023-0.817C252.367,14.818,252.165,13.381,251.749,12.136z M237.392,15.463
			c0.131-0.958,0.352-1.793,0.655-2.538c0.542-1.292,1.313-2.239,2.259-2.865c0.965-0.644,2.092-0.953,3.409-0.953
			c0.867,0,1.671,0.118,2.353,0.36c0.508,0.189,0.973,0.443,1.379,0.795c0.605,0.513,1.088,1.194,1.445,2.142
			c0.296,0.828,0.508,1.823,0.578,3.059H237.392z"/>
	</g>
	<path class="st0" d="M264.66,6.769c-1.526-0.004-2.87,0.468-4.022,1.185l0,0c-0.754,0.461-1.434,1.022-2.036,1.619l0,0l0,0
		c0-0.5-0.011-0.89-0.058-1.208l0,0c-0.015-0.25-0.053-0.452-0.122-0.654l0,0c-0.05-0.131-0.114-0.267-0.219-0.398l0,0
		c-0.075-0.077-0.158-0.152-0.249-0.209l0,0c-0.139-0.088-0.287-0.143-0.446-0.159l0,0c-0.133-0.017-0.269-0.02-0.414-0.032h-1.376
		v20.893l0,0h2.883V12.811l0,0c1.012-1.195,1.948-1.935,2.591-2.34c0.021-0.014,0.042-0.027,0.063-0.04
		c1.168-0.738,2.102-0.942,2.844-1.013c1.337-0.128,2.234-0.304,2.366-2.387C265.93,6.872,265.313,6.774,264.66,6.769z"/>
</g>
</svg>
